<?xml version="1.0" encoding="UTF-8" standalone="no"?><!DOCTYPE svg PUBLIC "-//W3C//DTD SVG 1.1//EN" "http://www.w3.org/Graphics/SVG/1.1/DTD/svg11.dtd"><svg width="100%" height="100%" viewBox="0 0 430 496" version="1.1" xmlns="http://www.w3.org/2000/svg" xmlns:xlink="http://www.w3.org/1999/xlink" xml:space="preserve" style="fill-rule:evenodd;clip-rule:evenodd;stroke-linejoin:round;stroke-miterlimit:2;"><rect id="aviorprojekt_logo_main" x="0" y="0" width="427.06" height="495.761" style="fill:none;"/><g id="logo"><g><path d="M425.9,375.608l-0,-127.04l-1.15,-0.695l-89.106,53.863l-16.667,10.091l-105.577,63.846l-0,0.89l-106.207,-64.215l-106.163,62.804l0,0.456l186.241,112.76c14.345,8.746 36.589,9.505 49.263,1.801l189.366,-114.561Zm-235.482,-370.052c12.674,-7.704 34.896,-6.858 49.262,1.866l186.22,112.782l-0,0.434l-106.142,62.761l-106.228,-64.171l0,0.911l-105.577,63.824l-16.645,10.026l-89.128,53.884l-1.15,-0.651l0,-127.018l189.388,-114.648" style="fill:#289dd2;"/><path d="M197.905,367.188l-90.712,-54.84l-106.163,62.804l0,0.456l186.241,112.76c3.212,1.932 6.858,3.538 10.634,4.688c4.991,1.475 10.308,2.322 15.495,2.387l-0,-118.88l-15.495,-9.375Zm15.625,-247.96l0,-118.924c5.187,0.13 10.504,0.955 15.517,2.43c3.776,1.151 7.421,2.691 10.633,4.688l186.22,112.782l-0,0.434l-106.142,62.761l-90.711,-54.796l-15.517,-9.375" style="fill:#62ddd6;"/><path d="M319.107,311.567l105.773,-63.954l1.15,0.716l0,-0.716l-189.562,-114.497l0,128.559l63.672,38.477l18.967,11.415Zm-192.187,-116.168l73.546,44.51l-0,128.559l-199.436,-120.595l0,-0.651l1.15,0.651l105.773,-63.91l18.967,11.436" style="fill:#365b6d;"/></g></g></svg>